<?xml version="1.0" encoding="UTF-8"?>
<svg xmlns="http://www.w3.org/2000/svg" version="1.1" width="73px" height="17px" viewBox="400 35 800 370">
  <g transform="matrix(1.25,0,0,-1.25,0,400)">
          <path 
          d="m 5.35547,291.891 108.97653,0 c 0,0 89.863,7.586 89.863,-68.047 0,-75.625 -77.472,-69.938 -92.261,-69.938 l -106.84806,0.156 0,33.45 110.89806,0 c 0,0 48.84,-2.246 48.84,36.332 0,37.254 -33.008,34.644 -50.039,34.644 -17.0272,0 -109.44125,0 -109.44125,0 l 0.01172,33.403"
          style="fill:#ffffff;" />
        
          <path
          d="m 189.535,128.953 c 16.551,-9.91 31.449,-27.769 31.449,-57.0077 0,-75.60546 -77.5,-71.347644 -92.285,-71.347644 L 0,0.488281 0,33.9961 131.93,34.0156 c 0,0 49.379,-0.6367 49.695,37.9297 0.215,26.4922 -16.645,46.6877 -32.738,57.0077 l 40.648,0"
          style="fill:#ffffff;" />
        
          <path
          d="m 317.992,128.953 46.582,0 c 0,-21.004 0,-51.3436 0,-66.1483 0,-21.7109 13.028,-28.8086 25.934,-28.8086 12.906,0 115.648,0 127.336,0 L 518.02,0 c -12.293,0 -137.665,0 -153.633,0 -15.989,0 -46.395,10.3516 -46.395,53.4961 0,47.7659 0,75.4569 0,75.4569"
          style="fill:#ffffff;" />
        
          <path
          d="m 518.168,187.316 c -11.68,0 -118.844,0.051 -131.746,0.051 -12.91,0 -22.035,1.254 -22.035,16.063 0,2.316 0,35.965 0.215,38.558 0,15.532 8,16.5 20.906,16.5 12.906,0 120.676,0 132.351,0 l 0.024,33.403 c -12.297,0 -150.153,0 -150.153,0 0,0 -49.738,3.316 -49.738,-49.879 0,-18.543 0,-36.434 0,-37.094 0,-47.746 35.629,-50.856 51.621,-50.856 15.973,0 135.973,0 148.27,0 l 0.285,33.254"
          style="fill:#ffffff;" />
        
          <path
          d="m 851.418,291.816 c -7.016,-7.75 -72.094,-85.55 -80.356,-93.711 -13.757,-13.554 -38.417,-10.671 -58.386,-10.671 -20.266,0 -23.711,15.355 -23.711,25.793 0,10.437 -0.086,69.148 -0.086,78.589 l -46.359,0 c 0,-9.945 0.168,-91.461 0.168,-104.382 0,-10.254 4.824,-33.504 46.101,-33.504 7.754,0 78.723,0.129 79.512,0.132 10.254,0.075 25.625,6.223 43.301,27.129 5.253,6.18 80.832,97.11 93.117,110.625 l -53.301,0"
          style="fill:#ffffff;" />
        
          <path
          d="m 805.793,108.047 c -9.731,10.508 -18.598,20.906 -49.211,20.906 0,0 -20.496,0 -67.793,0 -33.926,0 -45.984,-24.605 -45.984,-37.5155 0,-12.9219 0,-81.0469 0,-90.988281 l 46.179,0.148437 c 0,9.441444 0.086,67.910144 0.086,78.339844 0,10.4375 3.071,16.3359 23.34,16.3359 19.961,0 16.86,-0.1093 19.094,-0.0976 19.101,0.1289 29.797,-0.6641 39.656,-10.4961 8.235,-8.1953 75.871,-75.89845 83.625,-84.101575 l 53.145,0 C 894.902,14.5391 811.301,102.102 805.793,108.047"
          style="fill:#ffffff;" />
        
          <path
          d="m 1194.22,291.703 c -7.01,-7.734 -72.11,-85.539 -80.37,-93.68 -13.75,-13.566 -38.41,-10.675 -58.36,-10.675 -20.28,0 -23.74,15.347 -23.74,25.773 0,10.445 -0.08,69.149 -0.08,78.582 l -46.358,0 c 0,-9.933 0.176,-91.445 0.176,-104.355 0,-10.274 4.817,-33.516 46.092,-33.516 7.76,0 78.71,0.121 79.53,0.133 10.23,0.062 25.62,6.215 43.29,27.125 5.25,6.195 80.82,97.109 93.09,110.613 l -53.27,0"
          style="fill:#ffffff;" />
        
          <path
          d="m 1148.58,107.949 c -9.73,10.52 -18.6,20.91 -49.21,20.91 0,0 -20.49,0 -67.79,0 -33.924,0 -45.975,-24.601 -45.975,-37.5192 0,-12.9218 0,-81.0546 0,-90.988238 l 46.185,0.144532 c 0,9.437496 0.07,67.902306 0.07,78.351606 0,10.4296 3.07,16.3281 23.35,16.3281 19.96,0 16.83,-0.1172 19.09,-0.0977 19.1,0.1172 29.79,-0.6719 39.66,-10.5 8.23,-8.1914 75.84,-75.91794 83.63,-84.097631 l 53.14,0 C 1237.71,14.4531 1154.09,102.004 1148.58,107.949"
          style="fill:#ffffff;" />
      </g>
</svg>