<?xml version="1.0" encoding="UTF-8" standalone="no"?>
<!-- Created with Inkscape (http://www.inkscape.org/) -->

<svg
   xmlns:osb="http://www.openswatchbook.org/uri/2009/osb"
   xmlns:dc="http://purl.org/dc/elements/1.1/"
   xmlns:cc="http://creativecommons.org/ns#"
   xmlns:rdf="http://www.w3.org/1999/02/22-rdf-syntax-ns#"
   xmlns:svg="http://www.w3.org/2000/svg"
   xmlns="http://www.w3.org/2000/svg"
   xmlns:sodipodi="http://sodipodi.sourceforge.net/DTD/sodipodi-0.dtd"
   xmlns:inkscape="http://www.inkscape.org/namespaces/inkscape"
   width="803.3075"
   height="293.73993"
   id="svg2"
   version="1.1"
   inkscape:version="0.48.4 r9939"
   sodipodi:docname="shared_memory_2.svg">
  <defs
     id="defs4">
    <marker
       inkscape:stockid="TriangleOutL"
       orient="auto"
       refY="0"
       refX="0"
       id="TriangleOutL"
       style="overflow:visible">
      <path
         id="path6024"
         d="m 5.77,0 -8.65,5 0,-10 8.65,5 z"
         style="fill-rule:evenodd;stroke:#000000;stroke-width:1pt"
         transform="scale(0.8,0.8)"
         inkscape:connector-curvature="0" />
    </marker>
    <marker
       inkscape:stockid="TriangleInL"
       orient="auto"
       refY="0"
       refX="0"
       id="TriangleInL"
       style="overflow:visible">
      <path
         id="path6015"
         d="m 5.77,0 -8.65,5 0,-10 8.65,5 z"
         style="fill-rule:evenodd;stroke:#000000;stroke-width:1pt"
         transform="scale(-0.8,-0.8)"
         inkscape:connector-curvature="0" />
    </marker>
    <marker
       inkscape:stockid="Arrow1Lend"
       orient="auto"
       refY="0"
       refX="0"
       id="Arrow1Lend"
       style="overflow:visible">
      <path
         id="path5885"
         d="M 0,0 5,-5 -12.5,0 5,5 0,0 z"
         style="fill-rule:evenodd;stroke:#000000;stroke-width:1pt"
         transform="matrix(-0.8,0,0,-0.8,-10,0)"
         inkscape:connector-curvature="0" />
    </marker>
    <marker
       inkscape:stockid="EmptyDiamondM"
       orient="auto"
       refY="0"
       refX="0"
       id="EmptyDiamondM"
       style="overflow:visible">
      <path
         id="path5991"
         d="M 0,-7.0710768 -7.0710894,0 0,7.0710589 7.0710462,0 0,-7.0710768 z"
         style="fill:#ffffff;fill-rule:evenodd;stroke:#000000;stroke-width:1pt"
         transform="scale(0.4,0.4)"
         inkscape:connector-curvature="0" />
    </marker>
    <marker
       inkscape:stockid="DotL"
       orient="auto"
       refY="0"
       refX="0"
       id="DotL"
       style="overflow:visible">
      <path
         id="path5943"
         d="m -2.5,-1 c 0,2.76 -2.24,5 -5,5 -2.76,0 -5,-2.24 -5,-5 0,-2.76 2.24,-5 5,-5 2.76,0 5,2.24 5,5 z"
         style="fill-rule:evenodd;stroke:#000000;stroke-width:1pt"
         transform="matrix(0.8,0,0,0.8,5.92,0.8)"
         inkscape:connector-curvature="0" />
    </marker>
    <marker
       inkscape:stockid="Arrow2Mstart"
       orient="auto"
       refY="0"
       refX="0"
       id="Arrow2Mstart"
       style="overflow:visible">
      <path
         id="path5906"
         style="fill-rule:evenodd;stroke-width:0.625;stroke-linejoin:round"
         d="M 8.7185878,4.0337352 -2.2072895,0.01601326 8.7185884,-4.0017078 c -1.7454984,2.3720609 -1.7354408,5.6174519 -6e-7,8.035443 z"
         transform="scale(0.6,0.6)"
         inkscape:connector-curvature="0" />
    </marker>
    <marker
       inkscape:stockid="Arrow2Lstart"
       orient="auto"
       refY="0"
       refX="0"
       id="Arrow2Lstart"
       style="overflow:visible">
      <path
         id="path5900"
         style="fill-rule:evenodd;stroke-width:0.625;stroke-linejoin:round"
         d="M 8.7185878,4.0337352 -2.2072895,0.01601326 8.7185884,-4.0017078 c -1.7454984,2.3720609 -1.7354408,5.6174519 -6e-7,8.035443 z"
         transform="matrix(1.1,0,0,1.1,1.1,0)"
         inkscape:connector-curvature="0" />
    </marker>
    <marker
       inkscape:stockid="Arrow1Lstart"
       orient="auto"
       refY="0"
       refX="0"
       id="Arrow1Lstart"
       style="overflow:visible">
      <path
         id="path5882"
         d="M 0,0 5,-5 -12.5,0 5,5 0,0 z"
         style="fill-rule:evenodd;stroke:#000000;stroke-width:1pt"
         transform="matrix(0.8,0,0,0.8,10,0)"
         inkscape:connector-curvature="0" />
    </marker>
    <marker
       inkscape:stockid="Arrow2Lend"
       orient="auto"
       refY="0"
       refX="0"
       id="Arrow2Lend"
       style="overflow:visible">
      <path
         id="path5903"
         style="fill-rule:evenodd;stroke-width:0.625;stroke-linejoin:round"
         d="M 8.7185878,4.0337352 -2.2072895,0.01601326 8.7185884,-4.0017078 c -1.7454984,2.3720609 -1.7354408,5.6174519 -6e-7,8.035443 z"
         transform="matrix(-1.1,0,0,-1.1,-1.1,0)"
         inkscape:connector-curvature="0" />
    </marker>
    <inkscape:path-effect
       effect="spiro"
       id="path-effect5876"
       is_visible="true" />
    <inkscape:path-effect
       effect="spiro"
       id="path-effect5758"
       is_visible="true" />
    <linearGradient
       id="linearGradient5559"
       osb:paint="solid">
      <stop
         style="stop-color:#000000;stop-opacity:1;"
         offset="0"
         id="stop5561" />
    </linearGradient>
    <marker
       inkscape:stockid="TriangleOutL"
       orient="auto"
       refY="0"
       refX="0"
       id="TriangleOutL-8"
       style="overflow:visible">
      <path
         inkscape:connector-curvature="0"
         id="path6024-3"
         d="m 5.77,0 -8.65,5 0,-10 8.65,5 z"
         style="fill-rule:evenodd;stroke:#000000;stroke-width:1pt"
         transform="scale(0.8,0.8)" />
    </marker>
    <marker
       inkscape:stockid="TriangleOutL"
       orient="auto"
       refY="0"
       refX="0"
       id="TriangleOutL-4"
       style="overflow:visible">
      <path
         inkscape:connector-curvature="0"
         id="path6024-8"
         d="m 5.77,0 -8.65,5 0,-10 8.65,5 z"
         style="fill-rule:evenodd;stroke:#000000;stroke-width:1pt"
         transform="scale(0.8,0.8)" />
    </marker>
    <marker
       inkscape:stockid="TriangleOutL"
       orient="auto"
       refY="0"
       refX="0"
       id="TriangleOutL-5"
       style="overflow:visible">
      <path
         inkscape:connector-curvature="0"
         id="path6024-5"
         d="m 5.77,0 -8.65,5 0,-10 8.65,5 z"
         style="fill-rule:evenodd;stroke:#000000;stroke-width:1pt"
         transform="scale(0.8,0.8)" />
    </marker>
    <marker
       inkscape:stockid="TriangleOutL"
       orient="auto"
       refY="0"
       refX="0"
       id="TriangleOutL-88"
       style="overflow:visible">
      <path
         id="path6024-4"
         d="m 5.77,0 -8.65,5 0,-10 8.65,5 z"
         style="fill-rule:evenodd;stroke:#000000;stroke-width:1pt"
         transform="scale(0.8,0.8)"
         inkscape:connector-curvature="0" />
    </marker>
    <marker
       inkscape:stockid="TriangleOutL"
       orient="auto"
       refY="0"
       refX="0"
       id="marker3030"
       style="overflow:visible">
      <path
         id="path3032"
         d="m 5.77,0 -8.65,5 0,-10 8.65,5 z"
         style="fill-rule:evenodd;stroke:#000000;stroke-width:1pt"
         transform="scale(0.8,0.8)"
         inkscape:connector-curvature="0" />
    </marker>
    <inkscape:path-effect
       effect="spiro"
       id="path-effect5876-7"
       is_visible="true" />
    <marker
       inkscape:stockid="TriangleInL"
       orient="auto"
       refY="0"
       refX="0"
       id="TriangleInL-0"
       style="overflow:visible">
      <path
         id="path6015-4"
         d="m 5.77,0 -8.65,5 0,-10 8.65,5 z"
         style="fill-rule:evenodd;stroke:#000000;stroke-width:1pt"
         transform="scale(-0.8,-0.8)"
         inkscape:connector-curvature="0" />
    </marker>
    <marker
       inkscape:stockid="TriangleInL"
       orient="auto"
       refY="0"
       refX="0"
       id="TriangleInL-8"
       style="overflow:visible">
      <path
         id="path6015-1"
         d="m 5.77,0 -8.65,5 0,-10 8.65,5 z"
         style="fill-rule:evenodd;stroke:#000000;stroke-width:1pt"
         transform="scale(-0.8,-0.8)"
         inkscape:connector-curvature="0" />
    </marker>
    <marker
       inkscape:stockid="TriangleInL"
       orient="auto"
       refY="0"
       refX="0"
       id="TriangleInL-85"
       style="overflow:visible">
      <path
         id="path6015-7"
         d="m 5.77,0 -8.65,5 0,-10 8.65,5 z"
         style="fill-rule:evenodd;stroke:#000000;stroke-width:1pt"
         transform="scale(-0.8,-0.8)"
         inkscape:connector-curvature="0" />
    </marker>
    <marker
       inkscape:stockid="TriangleInL"
       orient="auto"
       refY="0"
       refX="0"
       id="TriangleInL-9"
       style="overflow:visible">
      <path
         id="path6015-48"
         d="m 5.77,0 -8.65,5 0,-10 8.65,5 z"
         style="fill-rule:evenodd;stroke:#000000;stroke-width:1pt"
         transform="scale(-0.8,-0.8)"
         inkscape:connector-curvature="0" />
    </marker>
  </defs>
  <sodipodi:namedview
     id="base"
     pagecolor="#ffffff"
     bordercolor="#666666"
     borderopacity="1.0"
     inkscape:pageopacity="0.0"
     inkscape:pageshadow="2"
     inkscape:zoom="1.4"
     inkscape:cx="318.85365"
     inkscape:cy="194.44689"
     inkscape:document-units="px"
     inkscape:current-layer="layer1"
     showgrid="false"
     inkscape:snap-bbox="true"
     inkscape:bbox-paths="true"
     inkscape:bbox-nodes="true"
     inkscape:snap-bbox-edge-midpoints="true"
     inkscape:snap-bbox-midpoints="true"
     inkscape:window-width="1908"
     inkscape:window-height="1052"
     inkscape:window-x="0"
     inkscape:window-y="0"
     inkscape:window-maximized="0"
     inkscape:object-paths="true"
     inkscape:snap-intersection-paths="true"
     inkscape:object-nodes="true"
     inkscape:snap-smooth-nodes="true"
     inkscape:snap-midpoints="true"
     inkscape:snap-object-midpoints="true"
     inkscape:snap-center="true"
     inkscape:snap-page="true"
     fit-margin-top="0"
     fit-margin-left="0"
     fit-margin-right="0"
     fit-margin-bottom="0" />
  <metadata
     id="metadata7">
    <rdf:RDF>
      <cc:Work
         rdf:about="">
        <dc:format>image/svg+xml</dc:format>
        <dc:type
           rdf:resource="http://purl.org/dc/dcmitype/StillImage" />
        <dc:title></dc:title>
      </cc:Work>
    </rdf:RDF>
  </metadata>
  <g
     inkscape:label="Layer 1"
     inkscape:groupmode="layer"
     id="layer1"
     transform="translate(229.71407,-20.844928)">
    <g
       id="g3155"
       transform="translate(-20,0)">
      <path
         transform="matrix(1.9512102,0,0,2.7059235,-594.03398,-763.78639)"
         d="m 346.48233,344.24524 c 0,29.56827 -33.24116,53.53809 -74.24622,53.53809 -41.00505,0 -74.24621,-23.96982 -74.24621,-53.53809 0,-29.56827 33.24116,-53.53809 74.24621,-53.53809 41.00506,0 74.24622,23.96982 74.24622,53.53809 z"
         sodipodi:ry="53.538086"
         sodipodi:rx="74.246216"
         sodipodi:cy="344.24524"
         sodipodi:cx="272.23611"
         id="path5569-7-1-2"
         style="fill:none;stroke:#fd5158;stroke-width:1.74080527;stroke-linejoin:round;stroke-miterlimit:4;stroke-opacity:1;stroke-dasharray:none"
         sodipodi:type="arc" />
      <path
         inkscape:connector-curvature="0"
         id="path5708-4"
         d="M 26.66314,267.10455 C -10.81368,228.2772 -23.35379,172.3658 -5.97841,121.56883 0.88767,101.49584 11.41534,84.304141 26.6084,68.354551 l 6.80405,-7.14286 6.58021,6.78571 c 49.69153,51.243429 54.23159,130.078669 10.77089,187.029569 -4.43726,5.81459 -16.27155,18.68472 -17.18089,18.68472 -0.29821,0 -3.41199,-2.97322 -6.91952,-6.60714 l 0,0 z"
         style="opacity:0.23109245;fill:#262626;fill-opacity:1;stroke:#262626;stroke-width:1.02100003;stroke-linejoin:round;stroke-miterlimit:4;stroke-opacity:1;stroke-dasharray:none;stroke-dashoffset:0" />
    </g>
    <g
       id="g3151"
       transform="translate(-10.432419,-5.8864049e-5)">
      <path
         id="path5569-7-9"
         d="m 582.02587,167.71489 c 0,80.0095 -64.86049,144.87 -144.86998,144.87 -80.00947,0 -144.86996,-64.8605 -144.86996,-144.87 0,-80.009378 64.86049,-144.869878 144.86996,-144.869878 80.00949,0 144.86998,64.8605 144.86998,144.869878 z"
         style="fill:none;stroke:#297f79;stroke-width:3.99999976;stroke-linejoin:round;stroke-miterlimit:4;stroke-opacity:1"
         inkscape:connector-curvature="0" />
      <path
         inkscape:connector-curvature="0"
         id="path5708-6"
         d="m 334.09526,267.10459 c -37.47682,-38.8274 -50.01693,-94.7388 -32.64155,-145.53568 6.86608,-20.073 17.39375,-37.264698 32.58681,-53.214298 l 6.80405,-7.1429 6.58021,6.7857 c 49.69153,51.243498 54.23159,130.078678 10.77089,187.029578 -4.43726,5.8146 -16.27155,18.6847 -17.18089,18.6847 -0.29821,0 -3.41199,-2.9732 -6.91952,-6.6071 l 0,0 z"
         style="opacity:0.23109245;fill:#262626;fill-opacity:1;stroke:#262626;stroke-width:1.02100003;stroke-linejoin:round;stroke-miterlimit:4;stroke-opacity:1;stroke-dasharray:none;stroke-dashoffset:0" />
    </g>
    <path
       style="color:#000000;fill:none;stroke:#000000;stroke-width:2.5;stroke-linecap:butt;stroke-linejoin:miter;stroke-miterlimit:4;stroke-opacity:1;stroke-dasharray:none;stroke-dashoffset:0;marker:none;marker-start:url(#TriangleInL);visibility:visible;display:inline;overflow:visible;enable-background:accumulate"
       d="M 247.06353,107.70457 85.27588,107.9945"
       id="path5736-6-7-8"
       inkscape:connector-curvature="0" />
    <path
       style="fill:none;stroke:#000000;stroke-width:2.5;stroke-linecap:butt;stroke-linejoin:miter;stroke-miterlimit:4;stroke-opacity:1;stroke-dasharray:none;marker-start:url(#TriangleInL);marker-end:none"
       d="M 96.815861,227.72521 258.60351,227.43528"
       id="path5736-6-7-8-1"
       inkscape:connector-curvature="0" />
    <flowRoot
       xml:space="preserve"
       id="flowRoot5043"
       style="font-size:40px;font-style:normal;font-weight:normal;line-height:125%;letter-spacing:0px;word-spacing:0px;fill:#000000;fill-opacity:1;stroke:none;font-family:Sans"
       transform="translate(72.641399,343.7961)"><flowRegion
         id="flowRegion5045"><rect
           id="rect5047"
           width="159.28571"
           height="61.42857"
           x="-274.28571"
           y="-205.54579" /></flowRegion><flowPara
         id="flowPara5049">Norway</flowPara></flowRoot>    <flowRoot
       xml:space="preserve"
       id="flowRoot5043-8"
       style="font-size:40px;font-style:normal;font-weight:normal;line-height:125%;letter-spacing:0px;word-spacing:0px;fill:#000000;fill-opacity:1;stroke:none;font-family:Sans"
       transform="translate(658.49579,348.28829)"><flowRegion
         id="flowRegion5045-3"><rect
           id="rect5047-2"
           width="212.85713"
           height="55.714287"
           x="-274.28571"
           y="-205.54579" /></flowRegion><flowPara
         id="flowPara5049-9">Australia</flowPara></flowRoot>    <flowRoot
       xml:space="preserve"
       id="flowRoot5078"
       style="font-size:40px;font-style:normal;font-weight:normal;line-height:125%;letter-spacing:0px;word-spacing:0px;fill:#000000;fill-opacity:1;stroke:none;font-family:Sans"
       transform="translate(110.27288,314.58482)"><flowRegion
         id="flowRegion5080"><rect
           id="rect5082"
           width="92.14286"
           height="66.428574"
           x="195.71428"
           y="-242.68864" /></flowRegion><flowPara
         id="flowPara5084"></flowPara></flowRoot>    <g
       transform="matrix(0.29100136,0,0,0.29100136,115.8153,120.46283)"
       id="layer1-7">
      <path
         inkscape:connector-curvature="0"
         d="m 153.45067,278.96681 0,-16.5 16.5,0 16.5,0 0,16.5 0,16.5 -16.5,0 -16.5,0 0,-16.5 z m 4,-50.91203 c 0,-18.19833 4.44104,-32.12121 14.47707,-45.38633 2.62084,-3.4641 12.20899,-12.89994 21.30699,-20.96854 24.02141,-21.30346 29.05416,-29.27378 27.97839,-44.30909 -1.5575,-21.768103 -22.63526,-39.966953 -46.22255,-39.909233 -24.17656,0.05917 -40.73495,14.38982 -47.06762,40.735223 -0.95848,3.9875 -2.01935,7.23966 -2.35749,7.22702 -0.33813,-0.0126 -6.46479,-0.9023 -13.61479,-1.97702 -7.15,-1.07472 -13.387576,-1.96438 -13.861286,-1.97702 -0.47371,-0.0126 -0.56163,-1.71048 -0.19538,-3.77298 4.957386,-27.916913 16.639916,-45.827363 36.699136,-56.263313 19.24509,-10.0124 46.72885,-11.75369 69.83387,-4.42447 32.84347,10.41838 52.22992,43.851593 44.02652,75.926613 -3.84855,15.04766 -12.76225,27.05637 -34.84766,46.94742 -14.56031,13.11362 -20.017,19.56853 -23.03767,27.25206 -2.06701,5.25773 -4.11753,18.22336 -4.11753,26.03546 l 0,4.27623 -14.5,0 -14.5,0 0,-9.41203 z"
         style="fill:#000000"
         id="path2221" />
    </g>
  </g>
</svg>
