<?xml version="1.0" encoding="UTF-8" standalone="no"?>
<!-- Created with Inkscape (http://www.inkscape.org/) -->

<svg
   xmlns:osb="http://www.openswatchbook.org/uri/2009/osb"
   xmlns:dc="http://purl.org/dc/elements/1.1/"
   xmlns:cc="http://creativecommons.org/ns#"
   xmlns:rdf="http://www.w3.org/1999/02/22-rdf-syntax-ns#"
   xmlns:svg="http://www.w3.org/2000/svg"
   xmlns="http://www.w3.org/2000/svg"
   xmlns:sodipodi="http://sodipodi.sourceforge.net/DTD/sodipodi-0.dtd"
   xmlns:inkscape="http://www.inkscape.org/namespaces/inkscape"
   width="486.30783"
   height="293.73993"
   id="svg2"
   version="1.1"
   inkscape:version="0.48.4 r9939"
   sodipodi:docname="shared_memory_11.svg">
  <defs
     id="defs4">
    <marker
       inkscape:stockid="TriangleOutL"
       orient="auto"
       refY="0"
       refX="0"
       id="TriangleOutL"
       style="overflow:visible">
      <path
         id="path6024"
         d="m 5.77,0 -8.65,5 0,-10 8.65,5 z"
         style="fill-rule:evenodd;stroke:#000000;stroke-width:1pt"
         transform="scale(0.8,0.8)"
         inkscape:connector-curvature="0" />
    </marker>
    <marker
       inkscape:stockid="TriangleInL"
       orient="auto"
       refY="0"
       refX="0"
       id="TriangleInL"
       style="overflow:visible">
      <path
         id="path6015"
         d="m 5.77,0 -8.65,5 0,-10 8.65,5 z"
         style="fill-rule:evenodd;stroke:#000000;stroke-width:1pt"
         transform="scale(-0.8,-0.8)"
         inkscape:connector-curvature="0" />
    </marker>
    <marker
       inkscape:stockid="Arrow1Lend"
       orient="auto"
       refY="0"
       refX="0"
       id="Arrow1Lend"
       style="overflow:visible">
      <path
         id="path5885"
         d="M 0,0 5,-5 -12.5,0 5,5 0,0 z"
         style="fill-rule:evenodd;stroke:#000000;stroke-width:1pt"
         transform="matrix(-0.8,0,0,-0.8,-10,0)"
         inkscape:connector-curvature="0" />
    </marker>
    <marker
       inkscape:stockid="EmptyDiamondM"
       orient="auto"
       refY="0"
       refX="0"
       id="EmptyDiamondM"
       style="overflow:visible">
      <path
         id="path5991"
         d="M 0,-7.0710768 -7.0710894,0 0,7.0710589 7.0710462,0 0,-7.0710768 z"
         style="fill:#ffffff;fill-rule:evenodd;stroke:#000000;stroke-width:1pt"
         transform="scale(0.4,0.4)"
         inkscape:connector-curvature="0" />
    </marker>
    <marker
       inkscape:stockid="DotL"
       orient="auto"
       refY="0"
       refX="0"
       id="DotL"
       style="overflow:visible">
      <path
         id="path5943"
         d="m -2.5,-1 c 0,2.76 -2.24,5 -5,5 -2.76,0 -5,-2.24 -5,-5 0,-2.76 2.24,-5 5,-5 2.76,0 5,2.24 5,5 z"
         style="fill-rule:evenodd;stroke:#000000;stroke-width:1pt"
         transform="matrix(0.8,0,0,0.8,5.92,0.8)"
         inkscape:connector-curvature="0" />
    </marker>
    <marker
       inkscape:stockid="Arrow2Mstart"
       orient="auto"
       refY="0"
       refX="0"
       id="Arrow2Mstart"
       style="overflow:visible">
      <path
         id="path5906"
         style="fill-rule:evenodd;stroke-width:0.625;stroke-linejoin:round"
         d="M 8.7185878,4.0337352 -2.2072895,0.01601326 8.7185884,-4.0017078 c -1.7454984,2.3720609 -1.7354408,5.6174519 -6e-7,8.035443 z"
         transform="scale(0.6,0.6)"
         inkscape:connector-curvature="0" />
    </marker>
    <marker
       inkscape:stockid="Arrow2Lstart"
       orient="auto"
       refY="0"
       refX="0"
       id="Arrow2Lstart"
       style="overflow:visible">
      <path
         id="path5900"
         style="fill-rule:evenodd;stroke-width:0.625;stroke-linejoin:round"
         d="M 8.7185878,4.0337352 -2.2072895,0.01601326 8.7185884,-4.0017078 c -1.7454984,2.3720609 -1.7354408,5.6174519 -6e-7,8.035443 z"
         transform="matrix(1.1,0,0,1.1,1.1,0)"
         inkscape:connector-curvature="0" />
    </marker>
    <marker
       inkscape:stockid="Arrow1Lstart"
       orient="auto"
       refY="0"
       refX="0"
       id="Arrow1Lstart"
       style="overflow:visible">
      <path
         id="path5882"
         d="M 0,0 5,-5 -12.5,0 5,5 0,0 z"
         style="fill-rule:evenodd;stroke:#000000;stroke-width:1pt"
         transform="matrix(0.8,0,0,0.8,10,0)"
         inkscape:connector-curvature="0" />
    </marker>
    <marker
       inkscape:stockid="Arrow2Lend"
       orient="auto"
       refY="0"
       refX="0"
       id="Arrow2Lend"
       style="overflow:visible">
      <path
         id="path5903"
         style="fill-rule:evenodd;stroke-width:0.625;stroke-linejoin:round"
         d="M 8.7185878,4.0337352 -2.2072895,0.01601326 8.7185884,-4.0017078 c -1.7454984,2.3720609 -1.7354408,5.6174519 -6e-7,8.035443 z"
         transform="matrix(-1.1,0,0,-1.1,-1.1,0)"
         inkscape:connector-curvature="0" />
    </marker>
    <inkscape:path-effect
       effect="spiro"
       id="path-effect5876"
       is_visible="true" />
    <inkscape:path-effect
       effect="spiro"
       id="path-effect5758"
       is_visible="true" />
    <linearGradient
       id="linearGradient5559"
       osb:paint="solid">
      <stop
         style="stop-color:#000000;stop-opacity:1;"
         offset="0"
         id="stop5561" />
    </linearGradient>
    <marker
       inkscape:stockid="TriangleOutL"
       orient="auto"
       refY="0"
       refX="0"
       id="TriangleOutL-8"
       style="overflow:visible">
      <path
         inkscape:connector-curvature="0"
         id="path6024-3"
         d="m 5.77,0 -8.65,5 0,-10 8.65,5 z"
         style="fill-rule:evenodd;stroke:#000000;stroke-width:1pt"
         transform="scale(0.8,0.8)" />
    </marker>
    <marker
       inkscape:stockid="TriangleOutL"
       orient="auto"
       refY="0"
       refX="0"
       id="TriangleOutL-4"
       style="overflow:visible">
      <path
         inkscape:connector-curvature="0"
         id="path6024-8"
         d="m 5.77,0 -8.65,5 0,-10 8.65,5 z"
         style="fill-rule:evenodd;stroke:#000000;stroke-width:1pt"
         transform="scale(0.8,0.8)" />
    </marker>
    <marker
       inkscape:stockid="TriangleOutL"
       orient="auto"
       refY="0"
       refX="0"
       id="TriangleOutL-5"
       style="overflow:visible">
      <path
         inkscape:connector-curvature="0"
         id="path6024-5"
         d="m 5.77,0 -8.65,5 0,-10 8.65,5 z"
         style="fill-rule:evenodd;stroke:#000000;stroke-width:1pt"
         transform="scale(0.8,0.8)" />
    </marker>
  </defs>
  <sodipodi:namedview
     id="base"
     pagecolor="#ffffff"
     bordercolor="#666666"
     borderopacity="1.0"
     inkscape:pageopacity="0.0"
     inkscape:pageshadow="2"
     inkscape:zoom="1.979899"
     inkscape:cx="194.67378"
     inkscape:cy="92.178352"
     inkscape:document-units="px"
     inkscape:current-layer="layer1"
     showgrid="false"
     inkscape:snap-bbox="true"
     inkscape:bbox-paths="true"
     inkscape:bbox-nodes="true"
     inkscape:snap-bbox-edge-midpoints="true"
     inkscape:snap-bbox-midpoints="true"
     inkscape:window-width="1908"
     inkscape:window-height="1052"
     inkscape:window-x="0"
     inkscape:window-y="0"
     inkscape:window-maximized="0"
     inkscape:object-paths="true"
     inkscape:snap-intersection-paths="true"
     inkscape:object-nodes="true"
     inkscape:snap-smooth-nodes="true"
     inkscape:snap-midpoints="true"
     inkscape:snap-object-midpoints="true"
     inkscape:snap-center="true"
     inkscape:snap-page="true"
     fit-margin-top="0"
     fit-margin-left="0"
     fit-margin-right="0"
     fit-margin-bottom="0" />
  <metadata
     id="metadata7">
    <rdf:RDF>
      <cc:Work
         rdf:about="">
        <dc:format>image/svg+xml</dc:format>
        <dc:type
           rdf:resource="http://purl.org/dc/dcmitype/StillImage" />
        <dc:title />
      </cc:Work>
    </rdf:RDF>
  </metadata>
  <g
     inkscape:label="Layer 1"
     inkscape:groupmode="layer"
     id="layer1"
     transform="translate(-110.27288,-314.58482)">
    <path
       sodipodi:type="arc"
       style="fill:none;stroke:#297f79;stroke-width:1.74080527;stroke-linejoin:round;stroke-miterlimit:4;stroke-opacity:1;stroke-dasharray:none"
       id="path5569-7"
       sodipodi:cx="272.23611"
       sodipodi:cy="344.24524"
       sodipodi:rx="74.246216"
       sodipodi:ry="53.538086"
       d="m 346.48233,344.24524 c 0,29.56827 -33.24116,53.53809 -74.24622,53.53809 -41.00505,0 -74.24621,-23.96982 -74.24621,-53.53809 0,-29.56827 33.24116,-53.53809 74.24621,-53.53809 41.00506,0 74.24622,23.96982 74.24622,53.53809 z"
       transform="matrix(1.9512102,0,0,2.7059235,-81.479154,-470.0465)" />
    <path
       sodipodi:type="arc"
       style="fill:none;stroke:#fd5158;stroke-width:1.74080527;stroke-linejoin:round;stroke-miterlimit:4;stroke-opacity:1;stroke-dasharray:none"
       id="path5569-7-1"
       sodipodi:cx="272.23611"
       sodipodi:cy="344.24524"
       sodipodi:rx="74.246216"
       sodipodi:ry="53.538086"
       d="m 346.48233,344.24524 c 0,29.56827 -33.24116,53.53809 -74.24622,53.53809 -41.00505,0 -74.24621,-23.96982 -74.24621,-53.53809 0,-29.56827 33.24116,-53.53809 74.24621,-53.53809 41.00506,0 74.24622,23.96982 74.24622,53.53809 z"
       transform="matrix(1.9512102,0,0,2.7059235,-274.04703,-470.0465)" />
    <path
       style="opacity:0.23109245;fill:#262626;fill-opacity:1;stroke:#262626;stroke-width:1.02100003;stroke-linejoin:round;stroke-miterlimit:4;stroke-opacity:1;stroke-dasharray:none;stroke-dashoffset:0"
       d="m 346.65009,560.84444 c -37.47682,-38.82735 -50.01693,-94.73875 -32.64155,-145.53572 6.86608,-20.07299 17.39375,-37.26469 32.58681,-53.21428 l 6.80405,-7.14286 6.58021,6.78571 c 49.69153,51.24343 54.23159,130.07867 10.77089,187.02957 -4.43726,5.81459 -16.27155,18.68472 -17.18089,18.68472 -0.29821,0 -3.41199,-2.97322 -6.91952,-6.60714 l 0,0 z"
       id="path5708"
       inkscape:connector-curvature="0" />
    <path
       style="fill:none;stroke:#000000;stroke-width:2.5;stroke-linecap:butt;stroke-linejoin:miter;stroke-miterlimit:4;stroke-opacity:1;stroke-dasharray:none;marker-start:none;marker-mid:none"
       d="m 190.8853,393.69108 161.78765,-0.28993"
       id="path5736"
       inkscape:connector-curvature="0" />
    <path
       style="fill:none;stroke:#000000;stroke-width:2.5;stroke-linecap:butt;stroke-linejoin:miter;stroke-miterlimit:4;stroke-opacity:1;stroke-dasharray:none;marker-end:none"
       d="m 190.8853,528.10705 161.78765,-0.28993"
       id="path5736-6"
       inkscape:connector-curvature="0" />
    <path
       style="fill:none;stroke:#000000;stroke-width:2.5;stroke-linecap:butt;stroke-linejoin:miter;stroke-miterlimit:4;stroke-opacity:1;stroke-dasharray:none"
       d="m 352.67295,393.40115 c 2.90828,1.56342 5.40921,3.87703 7.19389,6.65503 0.20424,0.31792 0.40149,0.64675 0.50508,1.01015 0.11677,0.40964 0.10837,0.85074 0,1.26269 -0.0351,0.13355 -0.0802,0.26444 -0.11147,0.39895 -0.0312,0.13452 -0.0479,0.2736 -0.0337,0.41097 0.0142,0.13736 0.06,0.27112 0.13175,0.38912 0.0717,0.118 0.16834,0.21854 0.26599,0.31619 l 1.01015,1.01015 c 0.0338,0.0338 0.0673,0.069 0.0899,0.1111 0.0226,0.0421 0.0338,0.0905 0.031,0.13821 -0.003,0.0478 -0.0192,0.094 -0.0421,0.13597 -0.0229,0.042 -0.0519,0.0803 -0.0789,0.1198 -0.22141,0.32439 -0.29194,0.74036 -0.22332,1.12706 0.0686,0.38671 0.26963,0.74356 0.54011,1.02832 0.54097,0.56952 1.32333,0.83998 2.09082,1.00714 0.7675,0.16715 1.55943,0.2534 2.28895,0.54457 0.36477,0.14559 0.71212,0.34322 0.99998,0.6104 0.28787,0.26717 0.51452,0.60665 0.61692,0.98581 0.15441,0.57173 0.02,1.17589 0,1.76776 -0.0257,0.75878 0.13832,1.52634 0,2.27285 -0.14026,0.75698 -0.58588,1.43177 -1.14162,1.96454 -0.55573,0.53276 -1.2197,0.93775 -1.88884,1.31845 -1.13657,0.64664 -2.30654,1.23706 -3.40563,1.94552 -1.0991,0.70846 -2.13505,1.5453 -2.90783,2.60017 -0.37176,0.50747 -0.68196,1.06406 -1.11658,1.51886 -0.21731,0.2274 -0.46594,0.42817 -0.74821,0.56695 -0.28226,0.13878 -0.59972,0.21368 -0.91313,0.18703 -0.0914,-0.008 -0.18189,-0.0238 -0.27318,-0.0327 -0.0913,-0.009 -0.18393,-0.0102 -0.27417,0.006 -0.0902,0.0164 -0.17707,0.0509 -0.25424,0.10042 -0.0772,0.0496 -0.14371,0.11373 -0.20856,0.17858 l -1.26269,1.26269 c -0.0329,0.0329 -0.0652,0.0676 -0.0844,0.10996 -0.0192,0.0423 -0.0243,0.0906 -0.016,0.13631 0.008,0.0457 0.029,0.0881 0.0503,0.12944 0.0213,0.0413 0.0436,0.0833 0.0501,0.12937 0.005,0.0383 -8.4e-4,0.0778 -0.0161,0.11331 -0.0152,0.0355 -0.0392,0.067 -0.0684,0.0923 -0.0583,0.0507 -0.13526,0.0761 -0.21212,0.0837 -0.15374,0.0152 -0.30657,-0.0357 -0.46106,-0.0368 -0.204,-0.001 -0.40219,0.0856 -0.55978,0.21516 -0.15759,0.12954 -0.27777,0.29932 -0.37628,0.47796 -0.19702,0.35728 -0.31763,0.76149 -0.57917,1.07464 -0.30488,0.36504 -0.76356,0.56128 -1.21404,0.71381 -0.45049,0.15254 -0.91994,0.27868 -1.31134,0.54888 -0.4238,0.29256 -0.72085,0.72934 -1.04808,1.12698 -0.16361,0.19882 -0.33782,0.39077 -0.53984,0.55041 -0.20202,0.15965 -0.43367,0.28666 -0.68493,0.34292 -0.22753,0.051 -0.46595,0.0496 -0.68819,0.12016 -0.11111,0.0353 -0.21698,0.0871 -0.31246,0.15403 -0.0955,0.0669 -0.1796,0.14845 -0.26204,0.23089 l -2.77792,2.77791 c -0.10139,0.10139 -0.20513,0.20142 -0.32272,0.28347 -0.11759,0.0821 -0.24754,0.14562 -0.3828,0.19321 -0.13526,0.0476 -0.27534,0.0798 -0.41354,0.11801 -0.13819,0.0382 -0.27644,0.084 -0.39617,0.16293 -0.13171,0.0868 -0.23628,0.21181 -0.30806,0.35226 -0.0718,0.14045 -0.11161,0.29598 -0.127,0.45296 -0.0308,0.31396 0.0344,0.62878 0.10605,0.93599 0.0717,0.30721 0.15079,0.61678 0.14846,0.93223 -0.001,0.15773 -0.0231,0.31614 -0.0753,0.465 -0.0522,0.14886 -0.13527,0.28806 -0.24925,0.39709 -0.13679,0.13085 -0.31194,0.21369 -0.48799,0.28327 -0.17604,0.0696 -0.35737,0.12866 -0.52216,0.22181 -0.37033,0.20934 -0.62656,0.57242 -0.83871,0.94115 -0.21216,0.36873 -0.39604,0.7593 -0.67652,1.07915 -0.34043,0.38822 -0.80095,0.64731 -1.25414,0.89476 -0.45319,0.24744 -0.9171,0.49725 -1.27124,0.87301 -0.37044,0.39306 -0.60369,0.90701 -1.01016,1.26269 -0.25618,0.22417 -0.56791,0.3734 -0.87705,0.5159 -0.30914,0.14251 -0.62359,0.28324 -0.89071,0.49425 -0.42664,0.33701 -0.7,0.82578 -0.97618,1.2941 -0.27617,0.46832 -0.58182,0.94517 -1.04413,1.23129 -0.29345,0.18161 -0.63157,0.27428 -0.95149,0.40368 -0.15996,0.0647 -0.31683,0.13938 -0.4587,0.23758 -0.14188,0.0982 -0.26883,0.22091 -0.35758,0.36889 -0.0898,0.14981 -0.13816,0.32094 -0.17039,0.49262 -0.0322,0.17169 -0.0493,0.34595 -0.0821,0.51753 -0.0652,0.34104 -0.19173,0.6683 -0.25254,1.01015 -0.15059,0.8466 0.11011,1.70644 0.37048,2.52596 0.26038,0.81952 0.52666,1.67632 0.38713,2.52481 -0.0563,0.34263 -0.17758,0.67111 -0.25254,1.01015 -0.17369,0.78553 -0.0948,1.6036 0.0202,2.39985 0.1149,0.79626 0.26542,1.59454 0.23239,2.39837 -0.0227,0.55287 -0.13207,1.09846 -0.18091,1.64964 -0.0488,0.55118 -0.0337,1.12335 0.18091,1.63336 0.16793,0.39902 0.44966,0.73979 0.75463,1.04705 0.30497,0.30726 0.63693,0.58737 0.93268,0.90351 0.29576,0.31613 0.55815,0.67524 0.69009,1.08756 0.066,0.20616 0.0982,0.4241 0.0839,0.64008 -0.0143,0.21598 -0.0761,0.42992 -0.18842,0.61495 -0.0371,0.0611 -0.0793,0.11899 -0.11328,0.18184 -0.0339,0.0628 -0.0592,0.13143 -0.0644,0.20267 -0.005,0.0712 0.0105,0.14367 0.0439,0.20685 0.0333,0.0632 0.0833,0.11574 0.13379,0.16625 l 2.0203,2.02031 c 0.0337,0.0337 0.067,0.0687 0.0892,0.11085 0.0222,0.0421 0.0328,0.0904 0.0293,0.13791 -0.003,0.0475 -0.0203,0.0933 -0.0429,0.13515 -0.0226,0.0419 -0.0509,0.0805 -0.0757,0.12116 -0.0776,0.12719 -0.12003,0.27468 -0.12886,0.42343 -0.009,0.14875 0.0154,0.29867 0.0638,0.4396 0.0968,0.28186 0.28745,0.52321 0.50452,0.72741 0.21707,0.20421 0.46211,0.37589 0.69683,0.55954 0.23472,0.18365 0.4623,0.38261 0.63151,0.62794 0.25105,0.36398 0.35817,0.8063 0.43917,1.24097 0.081,0.43468 0.14245,0.87879 0.31844,1.28441 0.19898,0.45861 0.53655,0.84632 0.91939,1.1678 0.38284,0.32147 0.81221,0.58202 1.23899,0.84234 0.42679,0.26032 0.85494,0.52325 1.23436,0.84875 0.37942,0.3255 0.71116,0.71902 0.90041,1.18172 0.10899,0.26647 0.16885,0.55051 0.26898,0.82043 0.10012,0.26993 0.24934,0.53472 0.48863,0.6948 0.14568,0.0974 0.31684,0.15058 0.48908,0.18299 0.17224,0.0324 0.3475,0.0453 0.52108,0.0695 1.05316,0.14703 2.0026,0.70305 2.87582,1.30988 0.87322,0.60683 1.71156,1.28144 2.68002,1.72058 0.48557,0.22018 0.99745,0.37789 1.51522,0.50508 0.75377,0.18517 1.52243,0.30676 2.27285,0.50507 1.06113,0.28043 2.08013,0.71359 3.03046,1.26269 0.68767,0.39734 1.33899,0.85454 2.0203,1.26269 1.01301,0.60686 2.112,1.11029 3.283,1.26269 0.91937,0.11965 1.85101,0.0196 2.77792,0 1.01543,-0.0215 2.0343,0.0545 3.03045,0.25254 1.23168,0.24491 2.42495,0.67651 3.53554,1.26269 1.23972,0.65433 2.36924,1.49515 3.53553,2.27285 0.51824,0.34557 1.04954,0.68324 1.48296,1.13062 0.43341,0.44738 0.76659,1.02484 0.78988,1.6473 0.006,0.16828 -0.01,0.33697 0,0.50507 0.0165,0.27854 0.10524,0.54967 0.23336,0.79755 0.12811,0.24787 0.29501,0.47384 0.47417,0.68775 0.35832,0.42782 0.77099,0.81538 1.06024,1.29262 0.45794,0.75554 0.56612,1.6629 0.75762,2.52538 0.64815,2.91922 2.32347,5.50158 3.28299,8.33376 0.26218,0.77386 0.47137,1.57044 0.54156,2.38448 0.0702,0.81404 -0.002,1.64861 -0.28902,2.41375 -0.3085,0.82355 -0.85076,1.5368 -1.41563,2.21084 -0.56487,0.67404 -1.16364,1.32743 -1.61483,2.0823 -0.36837,0.61632 -0.63118,1.2885 -0.92331,1.9444 -0.29213,0.65591 -0.62051,1.30654 -1.09699,1.84368 -0.70738,0.79742 -1.68665,1.28804 -2.57392,1.87882 -0.44364,0.29539 -0.87124,0.62189 -1.22539,1.02019 -0.35416,0.3983 -0.63357,0.87323 -0.74638,1.39413 -0.0285,0.13163 -0.0463,0.26558 -0.0803,0.39593 -0.0339,0.13034 -0.0852,0.25891 -0.17229,0.36169 -0.0995,0.11747 -0.24082,0.1946 -0.38929,0.23523 -0.14847,0.0406 -0.30439,0.0468 -0.45815,0.0397 -0.30753,-0.0142 -0.61797,-0.0804 -0.92032,-0.0224 -0.19397,0.0372 -0.37603,0.12475 -0.53773,0.23816 -0.1617,0.11342 -0.30402,0.25237 -0.43616,0.39916 -0.26426,0.2936 -0.49243,0.62264 -0.79388,0.87791 -0.46923,0.39735 -1.08686,0.587 -1.69986,0.63502 -0.61299,0.048 -1.22809,-0.0356 -1.83568,-0.12995 -0.44761,-0.0695 -0.90084,-0.14526 -1.35128,-0.0974 -0.22522,0.0239 -0.44839,0.0793 -0.65225,0.17796 -0.20386,0.0987 -0.3881,0.24176 -0.52185,0.42453 -0.22283,0.3045 -0.29391,0.69745 -0.50507,1.01015 -0.1547,0.22909 -0.38083,0.40619 -0.63347,0.5184 -0.25264,0.11221 -0.53098,0.16114 -0.80742,0.16042 -0.55287,-0.001 -1.08678,-0.19634 -1.58957,-0.42628 -0.52773,-0.24135 -1.0397,-0.52648 -1.48478,-0.89885 -0.44508,-0.37236 -0.82252,-0.83622 -1.0406,-1.37399 -0.32334,-0.79732 -0.27877,-1.6953 -0.50508,-2.52539 -0.30129,-1.10513 -1.1061,-2.06226 -2.14313,-2.54873"
       id="path5874"
       inkscape:path-effect="#path-effect5876"
       inkscape:original-d="m 352.67295,393.40115 c 2.35335,1.75143 5.01349,4.47462 7.19389,6.65503 0.25254,0.25253 0.25254,0.75761 0.50508,1.01015 0.21045,0.21045 -0.21045,1.05224 0,1.26269 0.29463,0.29463 -0.0421,1.2206 0.25254,1.51523 0.30618,0.30618 0.75179,0.75179 1.01015,1.01015 0.11905,0.11905 -0.11905,0.38603 0,0.50508 1.28244,1.28243 5.52415,3.7247 6.31346,5.3033 0.18707,0.37414 0,1.34023 0,1.76776 0,0.36172 0.23021,2.04263 0,2.27285 -1.072,1.07199 -3.03046,1.37207 -3.03046,3.28299 0,3.21586 -4.71629,2.94852 -6.31346,4.54569 -0.81463,0.81464 -1.98984,1.48477 -2.77792,2.27284 -0.21044,0.21045 -0.7997,0.0421 -1.01015,0.25254 -0.42089,0.4209 -0.84179,0.8418 -1.26269,1.26269 -0.16835,0.16835 0.16835,0.33673 0,0.50508 -0.0842,0.0842 -0.67343,0.16836 -0.75761,0.25254 -0.54717,0.54716 -0.96807,1.2206 -1.51523,1.76776 -0.32966,0.32966 -2.28961,1.02692 -2.52538,1.26269 -0.71856,0.71856 -1.63088,1.37834 -2.27285,2.02031 -0.32413,0.32413 -1.0199,0.26229 -1.26269,0.50508 -0.81226,0.81226 -2.21675,2.21674 -2.77792,2.77791 -0.35116,0.35117 -1.06559,0.30799 -1.51523,0.75762 -0.79267,0.79268 0.17253,2.85793 -0.50507,3.53553 -0.25254,0.25254 -0.75762,0.25254 -1.01015,0.50508 -0.50692,0.50692 -0.98141,1.48649 -1.51523,2.0203 -0.6142,0.6142 -1.85228,1.09467 -2.52538,1.76777 -0.37881,0.37881 -0.63135,0.88389 -1.01016,1.26269 -0.43441,0.43441 -1.44991,0.6923 -1.76776,1.01015 -0.61247,0.61248 -1.40784,1.91292 -2.02031,2.52539 -0.53444,0.53444 -1.23332,0.47571 -1.76777,1.01015 -0.16556,0.16556 -0.12601,0.88363 -0.25253,1.01015 -0.21045,0.21045 -0.0421,0.79971 -0.25254,1.01015 -1.6143,1.6143 1.37397,4.43441 0.75761,5.05077 -0.21045,0.21044 -0.0421,0.7997 -0.25254,1.01015 -1.05742,1.05742 -0.85515,3.69053 0.25254,4.79822 0.54717,0.54717 -0.54716,2.73583 0,3.283 1.24129,1.24129 1.23769,3.25799 2.27285,4.29315 0.12626,0.12627 -0.12627,0.63134 0,0.75761 0.50973,0.50973 1.48581,1.48581 2.0203,2.02031 0.11905,0.11904 -0.11905,0.38603 0,0.50507 0.85438,0.85438 1.02117,2.03132 1.76777,2.77792 0.4148,0.4148 0.53827,2.0867 0.75761,2.52538 0.9813,1.9626 3.13416,2.88163 4.29315,4.04061 0.35116,0.35117 0.30798,1.0656 0.75761,1.51523 0.21045,0.21045 0.79971,0.0421 1.01016,0.25254 1.47712,1.47713 4.29033,1.76495 5.55584,3.03046 0.33671,0.33672 1.17851,0.16836 1.51522,0.50508 0.46299,0.46298 1.80986,0.0421 2.27285,0.50507 0.59086,0.59086 2.88595,1.11819 3.03046,1.26269 0.47654,0.47654 1.26326,0.88417 2.0203,1.26269 0.95562,0.47781 2.65286,0.63256 3.283,1.26269 0.44532,0.44532 2.19199,-0.29296 2.77792,0 0.57305,0.28653 2.65738,-0.12053 3.03045,0.25254 0.68949,0.68949 3.08969,0.81685 3.53554,1.26269 0.77377,0.77377 2.65678,1.3941 3.53553,2.27285 0.8418,0.84179 1.43105,1.93612 2.27284,2.77792 0.11905,0.11904 -0.11904,0.38602 0,0.50507 0.64318,0.64318 1.02579,2.03593 1.76777,2.77792 0.16765,0.16765 0.26825,2.03601 0.75762,2.52538 0.37833,0.37834 3.28299,7.5786 3.28299,8.33376 0,1.2029 0.8655,3.57231 0.25254,4.79823 -1.18805,2.37609 -1.34785,2.61054 -3.03046,4.29314 -1.05412,1.05413 -0.89136,2.65914 -2.0203,3.78808 -1.46669,1.46668 -3.07096,2.81842 -4.54569,4.29314 -0.0842,0.0842 -0.16836,0.67344 -0.25254,0.75762 -0.3902,0.3902 -1.46922,-0.046 -1.76776,0.25254 -0.47431,0.4743 -0.94386,1.10327 -1.76777,1.51523 -0.59241,0.2962 -3.22026,0.1898 -3.53554,0.50507 -0.43535,0.43536 -2.02805,0.008 -2.52538,0.50508 -0.25253,0.25254 -0.25253,0.75761 -0.50507,1.01015 -0.13671,0.13671 -2.63746,0.64554 -3.03046,0.25254 -0.90098,-0.90098 -1.7337,-1.48116 -2.52538,-2.27284 -0.43536,-0.43536 -0.008,-2.02805 -0.50508,-2.52539 -0.80893,-0.80893 -1.36793,-0.96099 -2.14313,-2.54873"
       inkscape:connector-curvature="0" />
    <path
       style="fill:none;stroke:#000000;stroke-width:1.79999995;stroke-linecap:butt;stroke-linejoin:miter;stroke-miterlimit:0;stroke-opacity:1;stroke-dasharray:none;marker-end:url(#TriangleOutL)"
       d="m 267.76125,393.53711 4.01788,0.009"
       id="path9066-7"
       inkscape:connector-curvature="0"
       sodipodi:nodetypes="cc" />
    <path
       style="fill:none;stroke:#000000;stroke-width:1.79999995;stroke-linecap:butt;stroke-linejoin:miter;stroke-miterlimit:0;stroke-opacity:1;stroke-dasharray:none;marker-end:url(#TriangleOutL)"
       d="m 276.45154,527.96513 -4.01788,-0.009"
       id="path9066-7-6"
       inkscape:connector-curvature="0"
       sodipodi:nodetypes="cc" />
  </g>
</svg>
